<svg xmlns="http://www.w3.org/2000/svg" viewBox="0 0 900 620" role="img" aria-labelledby="title desc">
  <title id="title">Proof of work dashboard illustration</title>
  <desc id="desc">A clean dashboard with verification cards, charts, and profile proof signals.</desc>
  <defs>
    <linearGradient id="bg" x1="0" x2="1" y1="0" y2="1">
      <stop offset="0" stop-color="#38bdf8"/>
      <stop offset=".48" stop-color="#34d399"/>
      <stop offset="1" stop-color="#fbbf24"/>
    </linearGradient>
    <linearGradient id="screen" x1="0" x2="1" y1="0" y2="1">
      <stop offset="0" stop-color="#ffffff"/>
      <stop offset="1" stop-color="#e2e8f0"/>
    </linearGradient>
    <filter id="shadow" x="-20%" y="-20%" width="140%" height="140%">
      <feDropShadow dx="0" dy="22" stdDeviation="24" flood-color="#0f172a" flood-opacity=".22"/>
    </filter>
  </defs>
  <rect width="900" height="620" rx="42" fill="#0f172a"/>
  <circle cx="108" cy="105" r="118" fill="#0ea5e9" opacity=".28"/>
  <circle cx="776" cy="500" r="160" fill="#10b981" opacity=".25"/>
  <path d="M96 471c129-91 217-74 321 4 102 76 216 94 393-45v124H96Z" fill="url(#bg)" opacity=".3"/>
  <g filter="url(#shadow)">
    <rect x="138" y="92" width="624" height="424" rx="30" fill="url(#screen)"/>
    <rect x="138" y="92" width="624" height="74" rx="30" fill="#ffffff"/>
    <circle cx="184" cy="130" r="12" fill="#ef4444"/>
    <circle cx="222" cy="130" r="12" fill="#f59e0b"/>
    <circle cx="260" cy="130" r="12" fill="#22c55e"/>
    <rect x="596" y="116" width="108" height="28" rx="14" fill="#0f172a"/>
    <rect x="180" y="208" width="202" height="248" rx="22" fill="#ffffff"/>
    <circle cx="229" cy="260" r="35" fill="#38bdf8"/>
    <rect x="285" y="236" width="64" height="14" rx="7" fill="#0f172a"/>
    <rect x="285" y="264" width="48" height="10" rx="5" fill="#64748b"/>
    <rect x="209" y="326" width="132" height="16" rx="8" fill="#10b981"/>
    <rect x="209" y="365" width="96" height="12" rx="6" fill="#cbd5e1"/>
    <rect x="209" y="395" width="126" height="12" rx="6" fill="#cbd5e1"/>
    <rect x="424" y="208" width="246" height="96" rx="22" fill="#eff6ff"/>
    <rect x="456" y="238" width="90" height="15" rx="7.5" fill="#0284c7"/>
    <rect x="456" y="270" width="172" height="11" rx="5.5" fill="#94a3b8"/>
    <rect x="424" y="332" width="108" height="124" rx="22" fill="#ecfdf5"/>
    <rect x="562" y="332" width="108" height="124" rx="22" fill="#fffbeb"/>
    <path d="M453 414l19 19 39-58" fill="none" stroke="#059669" stroke-width="15" stroke-linecap="round" stroke-linejoin="round"/>
    <path d="M594 381h44M594 411h44" stroke="#d97706" stroke-width="13" stroke-linecap="round"/>
  </g>
</svg>
